<svg width="1174" height="968" viewBox="0 0 1174 968" fill="none" xmlns="http://www.w3.org/2000/svg">
<circle cx="2.5" cy="562.5" r="2.5" fill="white"/>
<circle cx="384.5" cy="307.5" r="2.5" fill="white"/>
<circle cx="937.5" cy="179.5" r="2.5" fill="white"/>
<circle cx="1171.5" cy="327.5" r="2.5" fill="white"/>
<circle cx="358.5" cy="808.5" r="2.5" fill="white"/>
<circle cx="172.5" cy="2.5" r="2.5" fill="white"/>
<circle cx="487.5" cy="182.5" r="2.5" fill="white"/>
<circle cx="57.5" cy="700.5" r="2.5" fill="white"/>
<circle cx="389.5" cy="332.5" r="2.5" fill="white"/>
<circle cx="276.5" cy="478.5" r="2.5" fill="white"/>
<circle cx="543.5" cy="816.5" r="2.5" fill="white"/>
<circle cx="329.5" cy="140.5" r="2.5" fill="white"/>
<circle cx="1149.5" cy="158.5" r="2.5" fill="white"/>
<circle cx="2.5" cy="387.5" r="2.5" fill="white"/>
<circle cx="701.5" cy="207.5" r="2.5" fill="white"/>
<circle cx="567.5" cy="965.5" r="2.5" fill="white"/>
<circle cx="222.5" cy="392.5" r="2.5" fill="white"/>
<circle cx="256.5" cy="283.5" r="2.5" fill="white"/>
<circle cx="381.5" cy="965.5" r="2.5" fill="white"/>
<circle cx="124.5" cy="118.5" r="2.5" fill="white"/>
<circle cx="1056.5" cy="288.5" r="2.5" fill="white"/>
<circle cx="106.5" cy="356.5" r="2.5" fill="white"/>
<circle cx="177.5" cy="651.5" r="2.5" fill="white"/>
<circle cx="306.5" cy="556.5" r="2.5" fill="white"/>
<circle cx="1120.5" cy="451.5" r="2.5" fill="white"/>
</svg>
